<svg id="Layer_1" data-name="Layer 1" xmlns="http://www.w3.org/2000/svg" viewBox="0 0 841.89 206.14"><defs><style>.cls-1,.cls-2{fill:#fff;}.cls-2{font-size:162.07px;font-family:Herculanum, Herculanum;}</style></defs><title>Artboard 1</title><path class="cls-1" d="M138,112.62A102.23,102.23,0,0,1,136.4,99c8.3.59,16,1.51,23,2.58a8.25,8.25,0,0,1-4.35-7,8.35,8.35,0,0,1,6.22-8c-7.5,1.27-15.81,2.36-24.87,3a77.12,77.12,0,0,1,5.4-24.52l66.21.58c-9.87-.59-18-6.72-20.15-14.88-1.92-7.16,1.38-13.32,2.3-14.91A217.81,217.81,0,0,1,124.81,42a220.37,220.37,0,0,1-94.3-27.75C40.62,21.1,45.7,33.07,43.38,44.41c-2.9,14.21-15.92,20.15-17.18,20.7H97.44c.27,1.2.52,2.41.74,3.64a123.33,123.33,0,0,1,2,21.18v0c-8.54-.49-16.4-1.36-23.51-2.41a7.2,7.2,0,0,1,6.19,6.55A7.12,7.12,0,0,1,79,100.61c6.44-.83,13.45-1.52,21-1.92v0c0,.07,0,.17,0,.3-.89,13.16-2.77,40.8-17.85,60.33C70,175,52.27,181.64,40.1,184.48a286.35,286.35,0,0,1,51.28-2.55c7.24.29,14.15.85,20.7,1.59a213.95,213.95,0,0,1,.63-85.26c2,0,4.57,0,7.46,0,2,0,4,.08,5.94.15l.75,0-.75,0,0,.41c.6,7.71,1.49,15.83,2.8,24.29q1.35,8.74,3.07,16.89c2.47,11.82,3.88,14.17,5.2,21.18a90.57,90.57,0,0,1,1.15,24.13,116.42,116.42,0,0,1,16.12-3,118.36,118.36,0,0,1,39.13,2.17C171.92,179,161,167.44,156.82,162.46,156.82,162.46,144.29,147.39,138,112.62Zm-17.2-22.26c-2.41,0-4.79,0-7.12,0,1-8.65,1.81-17.08,2.49-25.28h9.17c-.21,7.7-.17,16.11.29,25.13C124,90.29,122.4,90.33,120.77,90.36Z"/><path class="cls-1" d="M100.21,89.93v0L97.44,65.11c.27,1.2.52,2.41.74,3.64A123.33,123.33,0,0,1,100.21,89.93Z"/><path class="cls-1" d="M141.84,65.11l-5.4,24.52A77.12,77.12,0,0,1,141.84,65.11Z"/><path class="cls-1" d="M100,98.55v.14c0,.1,0,.2,0,.3v-.44Z"/><path class="cls-1" d="M138,112.62A102.23,102.23,0,0,1,136.4,99Z"/><path class="cls-1" d="M126.86,98.46l-.75,0-13.4-.18q3.66,0,7.46,0c2,0,4,.08,5.94.15Z"/><path class="cls-1" d="M125.6,90.24c-1.58.05-3.2.09-4.83.12-2.41,0-4.79,0-7.12,0Z"/><polygon class="cls-1" points="100 98.69 100.01 98.55 100.01 98.69 100 98.69"/><polygon class="cls-1" points="100.21 89.93 100.21 90.05 100.2 89.93 100.21 89.93"/><text class="cls-2" transform="translate(169.4 168.36)">HAI</text><path class="cls-1" d="M456.11,67.65h0a4,4,0,0,1-5.1-2.46l-2.75-7.9a4,4,0,0,1,2.45-5.1h0a4,4,0,0,1,5.1,2.46l2.76,7.91c.42-.1,1.25-.24,1.6.18.53.64-.45,2.24-1.12,3A6.17,6.17,0,0,1,456.11,67.65Z"/><path class="cls-1" d="M465.86,95.89A5.79,5.79,0,0,0,470,95.6a5.41,5.41,0,0,0,2.74-3.14L483.33,61c2.25-.94,3.86-2.57,3.77-4.11-.14-2.5-4.72-3.55-5.79-3.79-1.6-.37-3.65-.83-5.59.36A6.4,6.4,0,0,0,473,57.48L462.44,89a2.27,2.27,0,0,0-1.51,1.17,2.43,2.43,0,0,0,.34,2A7.11,7.11,0,0,0,465.86,95.89Z"/><path class="cls-1" d="M496.63,104.47a8,8,0,0,1-4.73,1c-.78-.1-3.52-.45-4.66-2.29-.79-1.3-.42-2.73,1.49-7.87,1.62-4.36,3.06-8.78,4.7-13.12a11.71,11.71,0,0,0,.92-5,6.11,6.11,0,0,0-1-3.49,6.22,6.22,0,0,0-3.61-2.24,8.57,8.57,0,0,0-3.93-.15c-5.44,1-8.1,7-9.41,6.35-.38-.18-.66-.95-.24-3.41q.21-5.4.41-10.81a29.43,29.43,0,0,0,3.1.45c5.81.56,7.84-.86,11.6-.85,6,0,12.65,3.6,14.52,8.75a10.88,10.88,0,0,1,.54,2.92c.62,6.73-2.66,12.47-4.64,15.82-2.58,4.38-5.66,7.93-4.5,10.19.28.54,1,1.49.72,2.48C497.84,103.41,497.62,103.89,496.63,104.47Z"/><path class="cls-1" d="M601.74,72.73a9.44,9.44,0,0,1,.91-.35l1.23-.4c.44-.13.86-.24,1.27-.32a5.18,5.18,0,0,1,.94-.11c.82,0,1.24.65,1.24,2,0,.74-.06,1.68-.17,2.81s-.16,2.34-.16,3.6a13.53,13.53,0,0,0,1.11,4.67A44.69,44.69,0,0,0,611,90.66a63.92,63.92,0,0,0,4.22,6.45,51.24,51.24,0,0,0,5,5.85,29.09,29.09,0,0,0,5.29,4.24,9.83,9.83,0,0,0,5.07,1.62,10.34,10.34,0,0,0,6-1.82,19.42,19.42,0,0,0,4.74-4.67A31.83,31.83,0,0,0,644.92,96a54.26,54.26,0,0,0,2.44-6.85,56.63,56.63,0,0,0,1.39-6.21,29.14,29.14,0,0,0,.46-4.35,33,33,0,0,1,.19-4.08c.13-1,.59-1.46,1.37-1.46a11.87,11.87,0,0,1,3.44,1.58,3.08,3.08,0,0,1,.84.79,2.43,2.43,0,0,1,.26,1.27,27.12,27.12,0,0,1-.75,3.48,69.61,69.61,0,0,1-2.27,7.2q-1.53,4.2-3.76,8.95a51.18,51.18,0,0,1-5.23,8.74,30.53,30.53,0,0,1-6.69,6.65,13.71,13.71,0,0,1-8.18,2.65,9.84,9.84,0,0,1-5.68-2.26,38.33,38.33,0,0,1-6.2-5.81,76.76,76.76,0,0,1-6.08-8,90.83,90.83,0,0,1-5.22-8.82,66,66,0,0,1-3.64-8.23A19.6,19.6,0,0,1,600.25,75,2.61,2.61,0,0,1,601.74,72.73Z"/><path class="cls-1" d="M678.78,104.67q-1.78,6.66-2.3,9.74c-.09.42-.18.76-.26,1a1.06,1.06,0,0,1-.46.59,2.47,2.47,0,0,1-.87.28,11.32,11.32,0,0,1-1.47.08,1.91,1.91,0,0,1-1-.32,5.36,5.36,0,0,1-1-.75,4.41,4.41,0,0,1-.75-.91,1.67,1.67,0,0,1-.29-.79,2.85,2.85,0,0,1,.26-1.11,10.36,10.36,0,0,1,1.17-1.9,20.77,20.77,0,0,0,2.2-4.31c.78-1.93,1.5-4,2.15-6.14s1.18-4.28,1.59-6.37a27.43,27.43,0,0,0,.61-5.1,20.91,20.91,0,0,0-1.07-7,27.53,27.53,0,0,0-2.4-5.18q-1.34-2.17-2.4-3.72a4.85,4.85,0,0,1-1.07-2.57.72.72,0,0,1,.42-.64,4.53,4.53,0,0,1,1-.39,7.72,7.72,0,0,1,1.2-.24,9.16,9.16,0,0,1,1.07-.08,1.74,1.74,0,0,1,1,.48,9.68,9.68,0,0,1,1.59,1.94q1,1.45,2.66,4.23c1.1,1.85,2.5,4.27,4.19,7.28q1.1,1.91,2.69,4.31T690.79,92q1.86,2.49,3.87,4.83a54.1,54.1,0,0,0,4,4.19,24.54,24.54,0,0,0,3.77,3,6.25,6.25,0,0,0,3.21,1.11A13.17,13.17,0,0,0,711.9,103,32.73,32.73,0,0,0,719,97.35a43.16,43.16,0,0,0,6.39-8.58,35.18,35.18,0,0,0,4.06-10.85,14.33,14.33,0,0,1,.75-2.77c.24-.52.49-.79.75-.79a3.33,3.33,0,0,1,.74.12,3.68,3.68,0,0,1,1,.4,3.84,3.84,0,0,1,.84.63,1.13,1.13,0,0,1,.36.83,19.54,19.54,0,0,1-.26,2.34c-.18,1.13-.38,2.57-.62,4.31s-.44,3.8-.62,6.17-.26,5-.26,7.91a22.44,22.44,0,0,0,.56,5.19,33.56,33.56,0,0,0,1.23,4.15c.46,1.22.87,2.27,1.23,3.17a6.18,6.18,0,0,1,.56,2.22,1.2,1.2,0,0,1-.46.75,6.72,6.72,0,0,1-1.07.83,8.12,8.12,0,0,1-1.27.67,2.75,2.75,0,0,1-1,.28c-.52,0-.93-.42-1.21-1.27a15.9,15.9,0,0,1-.61-3.48c-.13-1.27-.3-2.72-.49-4.35s-.39-3.25-.58-4.83-.37-3-.52-4.31-.28-2.23-.36-2.81l-4,4.43a43,43,0,0,1-9.54,8,18.59,18.59,0,0,1-9.55,3,12.53,12.53,0,0,1-3.44-.48,11.93,11.93,0,0,1-3.54-1.74,27.81,27.81,0,0,1-4-3.44,58.76,58.76,0,0,1-4.74-5.58L682.71,89Q680.57,98,678.78,104.67Z"/><path class="cls-1" d="M756.57,83.31q-.17-5.73-.49-8.43a5.56,5.56,0,0,0-.19-.87,1.18,1.18,0,0,0-.52-.63,1.76,1.76,0,0,1-1-1.42,2.81,2.81,0,0,1,1.14-2.1,13.91,13.91,0,0,1,2.63-1.78,17.09,17.09,0,0,1,3.08-1.27,9.15,9.15,0,0,1,2.44-.47,17.71,17.71,0,0,1,3.9.51,18.35,18.35,0,0,1,4.09,1.46,6.19,6.19,0,0,1,1.68,1.51,14.83,14.83,0,0,1,1.53,2.25,14.55,14.55,0,0,1,1.1,2.54,7.93,7.93,0,0,1,.43,2.41c0,3.69-.37,6.23-1.11,7.6a22,22,0,0,1-1.69,2.73c-.69,1-1.42,1.9-2.17,2.77a23.51,23.51,0,0,1-2.14,2.18,2.92,2.92,0,0,1-1.53.87,3.41,3.41,0,0,1-1.27-.32,13.43,13.43,0,0,1-1.42-.71,6.14,6.14,0,0,1-1.17-.87c-.33-.32-.49-.56-.49-.72a.88.88,0,0,1,.32-.67,3.49,3.49,0,0,1,1.24-.51A8.42,8.42,0,0,0,769.91,86a9.41,9.41,0,0,0,1.82-5.62,22.56,22.56,0,0,0-.23-2.88,15.22,15.22,0,0,0-.81-3.29,8.23,8.23,0,0,0-1.59-2.69,3.23,3.23,0,0,0-2.5-1.11,7,7,0,0,0-2.63.48,11.32,11.32,0,0,0-2.5,1.42c-.09.9-.17,2-.26,3.21s-.16,2.53-.23,3.87-.12,2.68-.16,4-.06,2.51-.06,3.56v20.9a18.77,18.77,0,0,1-.81,6.41,2.88,2.88,0,0,1-2.83,2c-.74,0-1.1-.39-1.1-1.18a3.21,3.21,0,0,1,.09-.71c.07-.27.16-.62.26-1.07a11.91,11.91,0,0,0,.26-1.82c.07-.77.1-1.78.1-3V96.73Q756.73,89.05,756.57,83.31Z"/><path class="cls-1" d="M813,107.93a2.87,2.87,0,0,1,1.63-.68c.73,0,1.1.35,1.1,1a11.07,11.07,0,0,1-.16,1.15,16.83,16.83,0,0,1-.46,1.9,14.81,14.81,0,0,1-.65,1.82c-.24.55-.48.83-.74.83a2.92,2.92,0,0,1-1.08-.2l-1.46-.59a1.33,1.33,0,0,0-.45-.12c-.22,0-.59,0-1.11-.08s-1.22,0-2.1-.08-2,0-3.41,0-2.66,0-3.54,0-1.59,0-2.11.08a4.86,4.86,0,0,0-1.14.16,3,3,0,0,0-.62.28,3.56,3.56,0,0,1-2,.55,1.11,1.11,0,0,1-.81-.55,11.91,11.91,0,0,1-.81-1.23,7.37,7.37,0,0,1-.62-1.35,3.61,3.61,0,0,1-.23-.91,2.52,2.52,0,0,1,.65-1.46,3.72,3.72,0,0,0,.65-2.34c0-.84.08-1.87.1-3.08s0-2.64,0-4.27V87.63q0-5.79-.32-9.22c-.22-2.3-.45-4.09-.68-5.39a14.15,14.15,0,0,0-.69-2.69,3.38,3.38,0,0,1-.32-1.22,2.3,2.3,0,0,1,.62-1.19,12.63,12.63,0,0,1,1.42-1.54,14.39,14.39,0,0,1,1.63-1.31,2.63,2.63,0,0,1,1.13-.55,2.92,2.92,0,0,1,1.43.51,1.58,1.58,0,0,1,.85,1.39,7.55,7.55,0,0,1-.26,1.74,8.29,8.29,0,0,0-.26,2.13q0,3.57-.2,7t-.19,6.8c0,1.48,0,2.87.06,4.16s.07,2.81.07,4.55,0,3.31-.13,5-.18,3.32-.26,4.79-.18,2.77-.26,3.88-.13,1.9-.13,2.37.26.64.78.64a1.64,1.64,0,0,0,.68-.16,1.92,1.92,0,0,1,.81-.16l11.75-.55A3.6,3.6,0,0,0,813,107.93Z"/><path class="cls-1" d="M628.61,139.07c-.06-1.59-.1-3.06-.1-4.44,0-.73,0-1.35-.06-1.85a2.67,2.67,0,0,0-.46-1.31,5.77,5.77,0,0,1-.87-1.54,3.89,3.89,0,0,1-.23-1.31,2.79,2.79,0,0,1,.58-1.35,11.71,11.71,0,0,1,1.37-1.66,13.29,13.29,0,0,1,1.59-1.38,2.46,2.46,0,0,1,1.26-.6,2.87,2.87,0,0,1,1.63.68c.6.45.91.83.91,1.14a6.64,6.64,0,0,1-.3,1.94,10.14,10.14,0,0,0-.35,2.34q-.27,3.48-.43,11.67T633,163.84a26,26,0,0,1-.48,6.29c-.33,1-.86,1.54-1.6,1.54a1.57,1.57,0,0,1-.81-.2,1.67,1.67,0,0,1-.61-1,11.91,11.91,0,0,1-.43-2.42c-.1-1.08-.18-2.58-.22-4.51s-.08-4.35-.1-7.28,0-6.48,0-10.64C628.71,142.84,628.67,140.65,628.61,139.07Z"/><path class="cls-1" d="M661.72,138.13a16.44,16.44,0,0,0-2.69-5l-2.6-3.44c-.65-.87-1.15-1.59-1.49-2.14a7.79,7.79,0,0,1-.69-1.27,2.54,2.54,0,0,1-.16-.83,2.42,2.42,0,0,1,.85-1.58A2.76,2.76,0,0,1,657,123a.94.94,0,0,1,.43.12,4.88,4.88,0,0,1,.84.71c.41.4,1,1,1.72,1.82s1.73,2,3,3.44q5.13,6.1,9.45,10.69t8.47,8.31q4.15,3.72,8.41,6.84t9.25,6.29c.09-1.16.16-2.18.23-3.08s.12-1.74.16-2.53.08-1.6.1-2.42,0-1.7,0-2.65q0-5.22-.13-9.58t-.26-8.86a8.56,8.56,0,0,0-1.07-4.12c-.24-.42-.45-.79-.65-1.1a2.14,2.14,0,0,1-.29-1.11,1.53,1.53,0,0,1,.52-1.19,4,4,0,0,1,1.26-.75,11.21,11.21,0,0,1,1.56-.44,7.88,7.88,0,0,1,1.4-.15,4,4,0,0,1,1.43.27,1.25,1.25,0,0,1,.71,1.31,12.45,12.45,0,0,1-.16,1.74c-.11.74-.24,2.05-.39,3.92s-.28,4.54-.39,8-.16,8.14-.16,14.05c0,1.79,0,3.36.1,4.71s.15,2.53.26,3.56.19,1.94.26,2.73.09,1.56.09,2.29a3.24,3.24,0,0,1-.52,1.83,5.09,5.09,0,0,1-2.59,2,3.9,3.9,0,0,1-1.17.24c-.26,0-.49-.23-.69-.67l-.68-1.59c-.26-.6-.57-1.25-.94-1.94a5.26,5.26,0,0,0-1.52-1.74q-5.21-3.63-9-6.37t-6.62-4.82c-1.86-1.4-3.45-2.63-4.74-3.68s-2.44-2-3.41-2.93-1.85-1.76-2.63-2.57-1.56-1.68-2.34-2.58c-.13,1.16-.25,2.75-.36,4.75s-.22,4.18-.35,6.53-.3,4.71-.49,7.08-.45,4.52-.75,6.41a5.89,5.89,0,0,1-1,2.7,2,2,0,0,1-1.49.87,2.87,2.87,0,0,1-.81-.16,3.18,3.18,0,0,1-.91-.48,3.73,3.73,0,0,1-.72-.71,1.44,1.44,0,0,1-.29-.87,8.64,8.64,0,0,1,.55-2.41,43.74,43.74,0,0,0,1.17-4.36q.62-2.73,1.17-6.64a66.87,66.87,0,0,0,.55-9.22A21.42,21.42,0,0,0,661.72,138.13Z"/><path class="cls-1" d="M750.71,149.71a3.62,3.62,0,0,1,1.89-.32,1.21,1.21,0,0,1,.65.16,1.34,1.34,0,0,1,.42.83,10.35,10.35,0,0,1,.19,2.05c0,.93,0,2.23,0,3.92q0,5.31.3,8.59c.19,2.19.29,4.05.29,5.58a2.65,2.65,0,0,1-.36,1.58,1.83,1.83,0,0,1-1.52.48.92.92,0,0,1-.65-.24,2.36,2.36,0,0,1-.52-.91,10.53,10.53,0,0,1-.49-1.94c-.15-.85-.31-2-.49-3.32s-.82-2.06-1.94-2.06a4.74,4.74,0,0,0-1,.16c-.45.1-1,.21-1.59.31s-1.25.21-1.94.32a12.57,12.57,0,0,1-1.95.16,12.4,12.4,0,0,1-7.37-2.06,15.54,15.54,0,0,1-4.58-5,21.14,21.14,0,0,1-2.37-6.22,28.43,28.43,0,0,1-.68-5.7,38.28,38.28,0,0,1,1.23-9.65,25.71,25.71,0,0,1,3.86-8.47,20.89,20.89,0,0,1,6.66-6,18.8,18.8,0,0,1,9.61-2.34,12.8,12.8,0,0,1,5.65,1,3.28,3.28,0,0,1,1.95,3.13,2.06,2.06,0,0,1-.39,1.14,4.51,4.51,0,0,1-.91,1,6.49,6.49,0,0,1-1,.72,2,2,0,0,1-.84.27,1.43,1.43,0,0,1-1-.47c-.32-.32-1-1-1.91-2.06a3.21,3.21,0,0,0-1.23-.91,4.56,4.56,0,0,0-1.43-.2,9.27,9.27,0,0,0-6,2.34,22.82,22.82,0,0,0-5,5.89,32.9,32.9,0,0,0-3.37,7.8,28.46,28.46,0,0,0-1.24,8,26.69,26.69,0,0,0,.75,7,10.15,10.15,0,0,0,2.08,4.15,6.88,6.88,0,0,0,3.08,2,12.45,12.45,0,0,0,3.77.55,9.65,9.65,0,0,0,3.21-.51,9.28,9.28,0,0,0,2.53-1.31,6.6,6.6,0,0,0,1.69-1.74,4.67,4.67,0,0,0,.75-1.9l.52-4.75A1.53,1.53,0,0,1,750.71,149.71Z"/><path class="cls-1" d="M777.6,162.89a.8.8,0,0,1,.62-.36,4.31,4.31,0,0,1,2.14.75,5.77,5.77,0,0,0,3,.75,3.31,3.31,0,0,0,2.82-1.46,5.28,5.28,0,0,0,1.08-3.21,13.82,13.82,0,0,0-.62-3.72q-.62-2.13-1.53-4.55c-.6-1.6-1.26-3.27-2-5s-1.37-3.38-2-5-1.11-3.12-1.52-4.55a13.17,13.17,0,0,1-.62-3.64,12.49,12.49,0,0,1,.88-3.84,30,30,0,0,1,2.33-5,20.37,20.37,0,0,1,3.38-4.4,5.77,5.77,0,0,1,4-1.86,10.76,10.76,0,0,1,1.34.12,10.45,10.45,0,0,1,1.72.4,5.87,5.87,0,0,1,1.49.71,1.28,1.28,0,0,1,.65,1.07,3,3,0,0,1-.49,2.06,3.89,3.89,0,0,1-2.3.55c-2.86.11-4.92.91-6.17,2.42a8.38,8.38,0,0,0-1.89,5.58,16.15,16.15,0,0,0,1.11,5.18c.73,2.08,1.55,4.33,2.43,6.73s1.7,4.88,2.44,7.43a26.72,26.72,0,0,1,1.1,7.33,21.72,21.72,0,0,1-.32,2.61,18.48,18.48,0,0,1-1.2,4.07,13.83,13.83,0,0,1-2.34,3.76,4.82,4.82,0,0,1-3.8,1.66,6.46,6.46,0,0,1-1.49-.23,10.62,10.62,0,0,1-1.79-.64,12.56,12.56,0,0,1-1.56-.83,1.83,1.83,0,0,1-.81-.83c-.13-.47-.24-.93-.32-1.38a7.52,7.52,0,0,1-.13-1.47A1.9,1.9,0,0,1,777.6,162.89Z"/><path class="cls-1" d="M595.49,126c-3.89,26.25-30.18,47.23-53.49,45.29a49.17,49.17,0,0,1-17.26-4.66c5.55-1,23-4.73,34.77-20.24,18.58-24.63,5.21-55.83,3.77-59a64.71,64.71,0,0,0-18.59-23.84C578,68.52,599.6,98.22,595.49,126Z"/></svg>